<?xml version="1.0" encoding="UTF-8"?>
<svg version="1.1" xmlns="http://www.w3.org/2000/svg" width="561" height="244">
<path d="M0 0 C185.13 0 370.26 0 561 0 C561 80.52 561 161.04 561 244 C375.87 244 190.74 244 0 244 C0 163.48 0 82.96 0 0 Z " fill="#F8F8F9" transform="translate(0,0)"/>
<path d="M0 0 C5.02056536 4.26972188 7.66766505 9.70907345 8.3203125 16.171875 C8.69979851 27.75884785 5.78805071 38.1804194 -2 47 C-4.83863168 49.32900301 -7.78591953 51.23225574 -11 53 C-11.87914062 53.54011719 -12.75828125 54.08023438 -13.6640625 54.63671875 C-18.1504485 56.47014816 -22.07574413 56.47672126 -26.875 56.4375 C-28.16470703 56.4674707 -28.16470703 56.4674707 -29.48046875 56.49804688 C-36.58161592 56.49265905 -41.71696025 54.7575172 -47.171875 50.17578125 C-54.11224291 41.98133696 -56.75694989 35.3116013 -56.37109375 24.42578125 C-55.13591493 13.02313042 -48.29335291 5.05502569 -39.5625 -2 C-27.83263069 -9.57888816 -10.99045546 -7.50442037 0 0 Z " fill="#10345C" transform="translate(436,85)"/>
<path d="M0 0 C16.44451539 -0.51389111 32.31588014 5.7858275 44.5625 16.625 C46.04357739 18.08139277 47.52296936 19.53950329 49 21 C49.6290625 21.47695312 50.258125 21.95390625 50.90625 22.4453125 C53.56848332 24.54244912 54.83716295 26.10457115 55.45458984 29.49975586 C56.08060558 39.27711252 56.1141975 49.0202139 56.0625 58.8125 C56.05747056 60.48762886 56.05291023 62.16275919 56.04882812 63.83789062 C56.03794708 67.89196439 56.02076371 71.94596531 56 76 C52.73111674 74.44294226 50.39549801 72.66334538 47.6875 70.25 C36.65311915 61.33202309 20.53451153 56.94967404 6.58984375 55.51953125 C5.40519531 55.34808594 4.22054687 55.17664063 3 55 C0.78457556 50.56915112 1.27055697 44.75005194 0.9375 39.875 C0.84807129 38.58376221 0.75864258 37.29252441 0.66650391 35.9621582 C-0.10557291 23.96996704 -0.21875774 12.01316519 0 0 Z " fill="#114B85" transform="translate(104,56)"/>
<path d="M0 0 C0.97484848 0.00222061 1.94969696 0.00444122 2.9540863 0.00672913 C4.05515213 0.00680466 5.15621796 0.00688019 6.29064941 0.00695801 C8.08749428 0.01469994 8.08749428 0.01469994 9.92063904 0.02259827 C11.14000656 0.02401321 12.35937408 0.02542816 13.61569214 0.02688599 C17.52856349 0.03250485 21.4413786 0.04506055 25.35423279 0.05775452 C27.99941426 0.06276709 30.64459662 0.06733041 33.28977966 0.07142639 C39.79047005 0.08163156 46.29103812 0.10120331 52.79173279 0.12025452 C52.79173279 9.69025452 52.79173279 19.26025452 52.79173279 29.12025452 C55.06048279 29.08544983 57.32923279 29.05064514 59.66673279 29.01478577 C61.92420704 28.99122646 64.18166633 28.97310388 66.43919373 28.95545959 C67.97897212 28.94059872 69.51871002 28.92030413 71.05833435 28.89393616 C84.79339942 28.66501841 98.99546099 29.08915064 111.29173279 35.93275452 C112.28958801 36.45289124 112.28958801 36.45289124 113.30760193 36.98353577 C116.90597132 38.90667265 120.0863083 41.00011351 123.22923279 43.62025452 C126.76026866 46.54303589 129.61553554 46.64964689 134.10423279 46.33119202 C134.66110779 46.26158264 135.21798279 46.19197327 135.79173279 46.12025452 C135.79173279 45.46025452 135.79173279 44.80025452 135.79173279 44.12025452 C150.36963678 35.49288454 160.78260903 31.55046997 177.79173279 32.12025452 C177.79173279 34.43025452 177.79173279 36.74025452 177.79173279 39.12025452 C174.9864947 40.52287356 172.48510596 40.312732 169.35423279 40.43275452 C159.34423017 41.10758615 151.69926436 44.15853928 143.37376404 49.65541077 C135.45319676 54.14892473 128.82992521 54.54145284 119.86204529 54.44837952 C118.60965057 54.44691422 117.35725586 54.44544891 116.06690979 54.44393921 C112.70759921 54.43629574 109.3489642 54.41505664 105.98980713 54.38635635 C103.22189532 54.36485762 100.45398293 54.35412769 97.68601227 54.34325886 C82.13613283 54.28039113 66.58585065 54.1265558 51.04173279 53.68275452 C50.34018066 53.6633783 49.63862854 53.64400208 48.91581726 53.6240387 C37.97698972 53.30551145 37.97698972 53.30551145 36.79173279 52.12025452 C36.66673279 49.62025452 36.66673279 49.62025452 36.79173279 47.12025452 C37.79173279 46.12025452 37.79173279 46.12025452 40.64538574 46 C41.9222374 46.00222061 43.19908905 46.00444122 44.51463318 46.00672913 C45.21703629 46.0065831 45.91943939 46.00643707 46.64312744 46.00628662 C48.97524557 46.00698579 51.30728478 46.01477835 53.63938904 46.02259827 C55.25221717 46.02446243 56.86504586 46.02588634 58.47787476 46.02688599 C62.73088636 46.03071129 66.98386402 46.04054167 71.23686218 46.05158997 C75.57350709 46.06180383 79.91015746 46.06638355 84.24681091 46.07142639 C92.76180048 46.08216393 101.27676242 46.09924049 109.79173279 46.12025452 C109.79173279 45.46025452 109.79173279 44.80025452 109.79173279 44.12025452 C108.77036728 43.99705338 107.74900177 43.87385223 106.69668579 43.74691772 C103.04305966 43.16058722 99.82051912 42.24521156 96.31248474 41.09364319 C88.64277879 38.85431806 81.39837734 38.5330038 73.45970154 38.54603577 C72.0471934 38.5335515 70.63470063 38.51920667 69.222229 38.50311279 C65.55503504 38.46556077 61.88810957 38.44997621 58.2207489 38.44032288 C52.30740077 38.42035677 46.39425164 38.36382422 40.48111916 38.31155968 C38.42197507 38.29622031 36.36293255 38.2890308 34.30374146 38.28341675 C33.06767654 38.27638229 31.83161163 38.26934784 30.55809021 38.26210022 C29.46558456 38.25862076 28.37307892 38.2551413 27.24746704 38.2515564 C24.79173279 38.12025452 24.79173279 38.12025452 23.79173279 37.12025452 C23.66673279 34.62025452 23.66673279 34.62025452 23.79173279 32.12025452 C24.79173279 31.12025452 24.79173279 31.12025452 26.6493988 31.00672913 C27.44015808 31.01196594 28.23091736 31.01720276 29.04563904 31.02259827 C30.3266449 31.02743225 30.3266449 31.02743225 31.63352966 31.03236389 C32.53136169 31.0407428 33.42919373 31.0491217 34.35423279 31.05775452 C35.25593201 31.06226624 36.15763123 31.06677795 37.08665466 31.07142639 C39.32174593 31.08325227 41.55670715 31.09973231 43.79173279 31.12025452 C43.79173279 28.48025452 43.79173279 25.84025452 43.79173279 23.12025452 C43.01458923 23.13072815 42.23744568 23.14120178 41.43675232 23.1519928 C37.93011179 23.19345734 34.42352273 23.2195503 30.91673279 23.24525452 C29.69341248 23.26201233 28.47009216 23.27877014 27.20970154 23.29603577 C25.45979919 23.30570374 25.45979919 23.30570374 23.67454529 23.31556702 C22.59576111 23.32604065 21.51697693 23.33651428 20.40550232 23.3473053 C17.79173279 23.12025452 17.79173279 23.12025452 15.79173279 21.12025452 C16.12173279 19.14025452 16.45173279 17.16025452 16.79173279 15.12025452 C25.70173279 15.12025452 34.61173279 15.12025452 43.79173279 15.12025452 C43.79173279 12.81025452 43.79173279 10.50025452 43.79173279 8.12025452 C42.93395737 8.12691635 42.93395737 8.12691635 42.05885315 8.13371277 C36.12201937 8.17786403 30.185232 8.20808664 24.24827576 8.2301178 C22.03080858 8.24019276 19.81335474 8.25385311 17.59593201 8.27113342 C14.41376967 8.29531615 11.23178254 8.30672249 8.04954529 8.31556702 C6.55573837 8.33105087 6.55573837 8.33105087 5.03175354 8.34684753 C3.65054825 8.34707413 3.65054825 8.34707413 2.24143982 8.3473053 C1.42869598 8.35174652 0.61595215 8.35618774 -0.22142029 8.36076355 C-2.20826721 8.12025452 -2.20826721 8.12025452 -4.20826721 6.12025452 C-3.48503898 0.18978305 -3.48503898 0.18978305 0 0 Z " fill="#133861" transform="translate(32.20826721191406,104.87974548339844)"/>
<path d="M0 0 C0.60142352 16.66870881 1.19126428 33.31750448 1 50 C0.18917969 50.03738281 -0.62164062 50.07476562 -1.45703125 50.11328125 C-8.19547325 50.51335173 -14.30545219 51.37810016 -20.7578125 53.37890625 C-23 54 -23 54 -26 54 C-26 54.66 -26 55.32 -26 56 C-26.99 56.37125 -27.98 56.7425 -29 57.125 C-32.91582295 58.7758663 -36.00912817 61.13507206 -39.30078125 63.79296875 C-41 65 -41 65 -43 65 C-43.20334246 58.00791283 -43.34314504 51.01659125 -43.43945312 44.0222168 C-43.47961093 41.64464833 -43.53415065 39.26727652 -43.60351562 36.89038086 C-43.70090282 33.46679146 -43.7460045 30.04581853 -43.78125 26.62109375 C-43.82254028 25.56353378 -43.86383057 24.50597382 -43.90637207 23.41636658 C-43.91074808 16.17060826 -43.91074808 16.17060826 -41.30419922 12.82034302 C-39.28215941 11.02109662 -37.25700995 9.4902627 -35 8 C-34.30571899 7.50990952 -33.61143799 7.01981903 -32.89611816 6.51487732 C-22.43908107 -0.69865781 -12.25326705 -0.35689127 0 0 Z " fill="#10437B" transform="translate(207,80)"/>
<path d="M0 0 C0.84216064 -0.00386719 1.68432129 -0.00773437 2.55200195 -0.01171875 C8.92023744 0.10681748 13.69994986 1.24376415 18.6875 5.4375 C18.6875 9.8225839 18.26364961 10.24307449 15.6875 13.4375 C15.3575 14.4275 15.0275 15.4175 14.6875 16.4375 C12.16297994 15.96999629 10.62562332 15.39474684 8.48828125 13.91796875 C4.99071178 12.06918377 2.5004833 12.0374173 -1.4375 12.0625 C-2.65695313 12.05476563 -3.87640625 12.04703125 -5.1328125 12.0390625 C-8.26643335 12.17483615 -8.26643335 12.17483615 -10.21875 13.8046875 C-11.79227338 16.15373312 -11.72719024 17.67289841 -11.3125 20.4375 C-8.83034053 23.82306027 -5.50773735 24.56162894 -1.625 25.8125 C5.01298997 28.06249222 10.88893982 30.3765748 15.6875 35.625 C17.47683852 40.65751457 17.81600728 45.72072321 15.73828125 50.72265625 C11.91759379 57.17081963 6.87681417 61.17747992 -0.3125 63.4375 C-3.28377582 63.84492442 -6.19217725 63.8668226 -9.1875 63.8125 C-9.9825293 63.80379883 -10.77755859 63.79509766 -11.59667969 63.78613281 C-20.17679154 63.57136596 -26.42587293 61.55832526 -33.3125 56.4375 C-31.9427836 52.44249382 -30.05527578 49.63740508 -27.3125 46.4375 C-24.41485133 47.04117681 -22.32480116 47.96286837 -19.8125 49.5 C-13.59212481 52.72711194 -5.94218677 52.37905113 0.6875 50.4375 C1.0175 47.7975 1.3475 45.1575 1.6875 42.4375 C-2.13652599 39.93384525 -5.84172767 38.50861023 -10.1875 37.125 C-16.97272839 34.75657122 -21.90632544 32.30830256 -25.75 26.125 C-26.87540554 20.74806243 -27.20733274 16.2629588 -24.75 11.25 C-17.46463514 2.84380977 -11.12459328 0.03499331 0 0 Z " fill="#123660" transform="translate(256.3125,77.5625)"/>
<path d="M0 0 C6.08823646 3.26795045 9.08381808 6.33167968 11.15625 12.92578125 C11.15625 16.88578125 11.15625 20.84578125 11.15625 24.92578125 C0.26625 24.92578125 -10.62375 24.92578125 -21.84375 24.92578125 C-19.10904381 31.17254275 -19.10904381 31.17254275 -13.84375 33.92578125 C-8.62662869 33.97659737 -4.48467623 33.2703656 0.15625 30.92578125 C1.14625 30.92578125 2.13625 30.92578125 3.15625 30.92578125 C4.14625 33.89578125 5.13625 36.86578125 6.15625 39.92578125 C3.25024739 41.18243103 1.36020416 41.92578125 -1.84375 41.92578125 C-1.84375 42.58578125 -1.84375 43.24578125 -1.84375 43.92578125 C-4.71932703 44.00716551 -7.59257262 44.06645976 -10.46875 44.11328125 C-11.27699219 44.13841797 -12.08523438 44.16355469 -12.91796875 44.18945312 C-18.88177236 44.26218244 -23.08453879 43.41378794 -27.671875 39.27734375 C-28.14109375 38.70757812 -28.6103125 38.1378125 -29.09375 37.55078125 C-29.57328125 36.98617187 -30.0528125 36.4215625 -30.546875 35.83984375 C-34.39032455 30.16728266 -34.44644729 24.56501802 -33.84375 17.92578125 C-31.55833251 10.30772295 -27.08750676 4.90225982 -20.21875 0.98828125 C-13.52226092 -2.02815527 -6.93348598 -2.61910528 0 0 Z " fill="#143963" transform="translate(310.84375,97.07421875)"/>
<path d="M0 0 C4.29 0 8.58 0 13 0 C12.25405281 7.40450742 11.13670535 14.71895628 9.9375 22.0625 C9.75123047 23.21427734 9.56496094 24.36605469 9.37304688 25.55273438 C8.91733259 28.36881495 8.45960624 31.18455247 8 34 C12.24066305 30.41057026 16.14181778 26.96052 19.5625 22.5625 C22.3875744 19.612372 23.71169416 19.03783464 27.83984375 18.49609375 C31.58428978 18.41792805 35.27302291 18.6505959 39 19 C34.84395541 24.05464882 30.39953088 28.64296116 25.52026367 33.00317383 C23.89180684 34.48283349 23.89180684 34.48283349 22 37 C21.96187484 41.11751748 23.90761077 43.65131551 26.3125 46.875 C34 57.47299383 34 57.47299383 34 61 C29.30890868 62.0477912 24.53673898 62.93659916 20 61 C15.59261326 56.7008163 12.77570942 51.00385176 10.01464844 45.56054688 C9.67981445 45.04556641 9.34498047 44.53058594 9 44 C8.34 44 7.68 44 7 44 C6.01 49.61 5.02 55.22 4 61 C0.04 61 -3.92 61 -8 61 C-8.24599661 52.67579206 -7.29981309 44.78699288 -6.0625 36.5625 C-5.88009766 35.29728516 -5.69769531 34.03207031 -5.50976562 32.72851562 C-4.14806548 23.44419643 -4.14806548 23.44419643 -3 20 C-2.82330078 18.10679405 -2.68156201 16.21020272 -2.5625 14.3125 C-2.18591205 9.31359861 -1.38738394 4.80959765 0 0 Z " fill="#11345C" transform="translate(454,79)"/>
<path d="M0 0 C4.29 0 8.58 0 13 0 C12.51807649 4.8995557 11.89791791 9.67066456 10.9375 14.5 C9.10854752 23.625899 9.10854752 23.625899 12 32 C15.35991931 32.44798924 17.5342403 32.18413756 20.6875 30.9375 C26.61692266 25.96960534 26.8298482 17.76583782 27.6875 10.5625 C27.88182617 9.03592773 27.88182617 9.03592773 28.08007812 7.47851562 C28.39592599 4.98682692 28.69923764 2.49355459 29 0 C33.29 0 37.58 0 42 0 C40.74491027 14.1527881 38.57637649 28.03003622 36 42 C32.04 42 28.08 42 24 42 C23.67 40.68 23.34 39.36 23 38 C22.113125 38.825 21.22625 39.65 20.3125 40.5 C15.80916099 43.73245806 11.47351635 43.5600077 6.0859375 43.56640625 C2.33374696 42.87771305 0.68699396 41.67285189 -2 39 C-7.89613831 30.32501705 -3.04685703 14.48005895 -1.38891602 4.87841797 C-1 3 -1 3 0 0 Z " fill="#10345C" transform="translate(497,98)"/>
<path d="M0 0 C5.42034594 0.38716757 8.33419394 2.18782114 12.3125 5.8125 C15.42571924 9.89293298 15.73641171 14.24102697 15.5 19.25 C14.39718265 26.85484464 11.17653223 32.13744289 5.5 37.25 C0.32650604 41.01254106 -5.32028962 41.06045382 -11.5 40.25 C-15.82904043 38.28225435 -18.60771571 35.71563679 -20.80859375 31.43359375 C-22.81414657 25.0996727 -22.42732361 17.23581363 -19.7421875 11.13671875 C-16.50386934 6.21814116 -12.00489971 2.05156791 -6.375 0.25 C-4.24836664 0.25 -2.12122895 0.15151635 0 0 Z " fill="#F4F5F7" transform="translate(415.5,89.75)"/>
<path d="M0 0 C3.3 0 6.6 0 10 0 C10.85537717 3.42150869 11.18675665 6.1353717 11.31640625 9.62109375 C11.37924805 11.27334961 11.37924805 11.27334961 11.44335938 12.95898438 C11.48267578 14.10689453 11.52199219 15.25480469 11.5625 16.4375 C11.60568359 17.55060547 11.64886719 18.66371094 11.69335938 19.81054688 C11.9754415 27.54317907 12.05027873 35.26266141 12 43 C12.90016846 42.95875 13.80033691 42.9175 14.7277832 42.875 C32.04003865 42.20078727 49.44957207 47.02327348 63 58 C65.77443198 60.57175432 68.42419441 63.22992974 71 66 C70.505 67.485 70.505 67.485 70 69 C69.36578125 68.57589844 68.7315625 68.15179688 68.078125 67.71484375 C52.48458026 57.91503318 34.798459 52.85759672 16.5 52.375 C15.29601562 52.33632812 14.09203125 52.29765625 12.8515625 52.2578125 C9.90118881 52.16414984 6.95081144 52.07842476 4 52 C3.58793959 47.32701016 3.17919506 42.65374475 2.77319336 37.98022461 C2.63537697 36.39876962 2.49673855 34.81738599 2.35717773 33.23608398 C1.3808528 22.16519369 0.59294871 11.09812641 0 0 Z " fill="#193C64" transform="translate(89,74)"/>
<path d="M0 0 C0.07442057 3.86986958 0.04702186 7.2735915 -1 11 C-1.72445312 11.06316406 -2.44890625 11.12632813 -3.1953125 11.19140625 C-4.16210938 11.31386719 -5.12890625 11.43632813 -6.125 11.5625 C-7.55199219 11.71912109 -7.55199219 11.71912109 -9.0078125 11.87890625 C-13.4014133 13.52507261 -15.73348639 15.90495285 -18 20 C-19.09013424 23.94758592 -19.51104348 27.86573645 -19.875 31.9375 C-19.99101562 33.00291016 -20.10703125 34.06832031 -20.2265625 35.16601562 C-20.50734722 37.77497362 -20.75685571 40.38726528 -21 43 C-25.29 43 -29.58 43 -34 43 C-33.57716878 33.803421 -32.46035449 24.89676396 -31 15.8125 C-30.82178711 14.70140869 -30.64357422 13.59031738 -30.45996094 12.44555664 C-29.13949622 4.41848867 -29.13949622 4.41848867 -28 1 C-24.04 1 -20.08 1 -16 1 C-16 2.65 -16 4.3 -16 6 C-15.34 6 -14.68 6 -14 6 C-13.67 5.01 -13.34 4.02 -13 3 C-8.44293494 0.58743614 -5.23220388 -0.38284419 0 0 Z " fill="#103660" transform="translate(357,97)"/>
<path d="M0 0 C3.96 0 7.92 0 12 0 C12.10869576 5.5434838 11.75830187 10.74647432 10.90625 16.21875 C10.73977966 17.33376892 10.73977966 17.33376892 10.56994629 18.47131348 C10.2187592 20.81507071 9.85952934 23.15750953 9.5 25.5 C9.25857872 27.10148181 9.01768841 28.70304376 8.77734375 30.3046875 C8.19102357 34.20407737 7.59749367 38.10230724 7 42 C2.71 42 -1.58 42 -6 42 C-5.29033441 27.98410455 -3.40595699 13.62382796 0 0 Z " fill="#113963" transform="translate(362,98)"/>
<path d="M0 0 C0.495 0.99 0.495 0.99 1 2 C-0.29212402 2.02505615 -1.58424805 2.0501123 -2.91552734 2.07592773 C-7.69769656 2.16991624 -12.47971762 2.27015766 -17.26171875 2.37231445 C-19.33362366 2.41569577 -21.40556507 2.45736846 -23.47753906 2.49731445 C-26.45128391 2.55493965 -29.42484448 2.61865625 -32.3984375 2.68359375 C-33.32868744 2.70030624 -34.25893738 2.71701874 -35.21737671 2.73423767 C-36.07811798 2.75418289 -36.93885925 2.77412811 -37.82568359 2.79467773 C-38.58513275 2.81022202 -39.34458191 2.8257663 -40.12704468 2.84178162 C-42.09115721 2.89127127 -42.09115721 2.89127127 -44 4 C-44 4.99 -44 5.98 -44 7 C-43.34 7.33 -42.68 7.66 -42 8 C-46.25414623 8.02465622 -50.50825498 8.04283899 -54.76245117 8.05493164 C-56.21070073 8.05997101 -57.65894517 8.06680253 -59.10717773 8.07543945 C-61.18474588 8.08752247 -63.26224697 8.09323211 -65.33984375 8.09765625 C-66.59144287 8.10289307 -67.84304199 8.10812988 -69.13256836 8.11352539 C-72 8 -72 8 -73 7 C-73.125 4.5 -73.125 4.5 -73 2 C-71.10718442 0.10718442 -67.79393283 0.82531744 -65.27709961 0.79467773 C-64.5746965 0.78477814 -63.8722934 0.77487854 -63.14860535 0.76467896 C-60.81655296 0.73297878 -58.48448016 0.70827312 -56.15234375 0.68359375 C-54.53950965 0.66303156 -52.92668104 0.64203529 -51.31385803 0.62062073 C-47.06090725 0.56532408 -42.80790723 0.51594844 -38.55487061 0.46777344 C-34.21817625 0.41761369 -29.88155373 0.36189885 -25.54492188 0.30664062 C-17.03000859 0.19896625 -8.51503535 0.09754205 0 0 Z " fill="#135496" transform="translate(142,150)"/>
<path d="M0 0 C2.4375 1.125 2.4375 1.125 4 3 C4.64600202 6.71451163 4.24457036 8.53124015 2.5 11.875 C-0.12533046 14.10653089 -0.78479929 14.38744784 -4.0625 14.5625 C-8 14 -8 14 -10 12.375 C-11.29618989 9.296549 -11.48288863 7.31123632 -11 4 C-8.04627097 -0.48966812 -5.14336369 -0.64292046 0 0 Z " fill="#0F345E" transform="translate(374,77)"/>
<path d="M0 0 C2.33984375 0.53125 2.33984375 0.53125 4.1484375 2.3125 C5.33984375 4.53125 5.33984375 4.53125 5.33984375 8.53125 C-0.60015625 8.53125 -6.54015625 8.53125 -12.66015625 8.53125 C-10.73967703 0.84933313 -7.33085874 0.08819078 0 0 Z " fill="#F1F2F5" transform="translate(303.66015625,105.46875)"/>
<path d="M0 0 C1.12535156 0.00580078 1.12535156 0.00580078 2.2734375 0.01171875 C3.02367188 0.00785156 3.77390625 0.00398438 4.546875 0 C10.14682697 0.01010822 10.14682697 0.01010822 11.2734375 1.13671875 C11.3984375 3.63671875 11.3984375 3.63671875 11.2734375 6.13671875 C9.45227747 7.95787878 6.96671986 7.26906955 4.546875 7.2734375 C3.79664062 7.26957031 3.04640625 7.26570313 2.2734375 7.26171875 C1.14808594 7.26751953 1.14808594 7.26751953 0 7.2734375 C-5.59995197 7.26332928 -5.59995197 7.26332928 -6.7265625 6.13671875 C-6.8515625 3.63671875 -6.8515625 3.63671875 -6.7265625 1.13671875 C-4.90540247 -0.68444128 -2.41984486 0.00436795 0 0 Z " fill="#23578B" transform="translate(73.7265625,90.86328125)"/>
<path d="M0 0 C2.14576637 -0.02685938 4.29162645 -0.04633088 6.4375 -0.0625 C7.63246094 -0.07410156 8.82742187 -0.08570313 10.05859375 -0.09765625 C13 0 13 0 14 1 C14.125 3.5 14.125 3.5 14 6 C12.19253866 7.80746134 9.49554219 7.17303483 7.0625 7.1875 C5.98097656 7.20167969 4.89945313 7.21585938 3.78515625 7.23046875 C1 7 1 7 -1 5 C-0.625 2.375 -0.625 2.375 0 0 Z " fill="#1D4068" transform="translate(35,136)"/>
<path d="M0 0 C1.65322266 0.01740234 1.65322266 0.01740234 3.33984375 0.03515625 C4.99693359 0.04869141 4.99693359 0.04869141 6.6875 0.0625 C7.54214844 0.07410156 8.39679687 0.08570312 9.27734375 0.09765625 C9.65953142 1.75380282 9.99129477 3.42222649 10.27734375 5.09765625 C9.27734375 6.09765625 9.27734375 6.09765625 6.5546875 6.1953125 C4.90146484 6.17791016 4.90146484 6.17791016 3.21484375 6.16015625 C1.55775391 6.14662109 1.55775391 6.14662109 -0.1328125 6.1328125 C-0.98746094 6.12121094 -1.84210937 6.10960938 -2.72265625 6.09765625 C-3.10484392 4.44150968 -3.43660727 2.77308601 -3.72265625 1.09765625 C-2.72265625 0.09765625 -2.72265625 0.09765625 0 0 Z " fill="#1B5086" transform="translate(49.72265625,90.90234375)"/>
<path d="M0 0 C0.66 0.66 1.32 1.32 2 2 C1.67 2.99 1.34 3.98 1 5 C8.26 5 15.52 5 23 5 C23 5.33 23 5.66 23 6 C15.41 6 7.82 6 0 6 C-0.33 4.35 -0.66 2.7 -1 1 C-0.67 0.67 -0.34 0.34 0 0 Z " fill="#204168" transform="translate(29,106)"/>
<path d="M0 0 C1.98 0 3.96 0 6 0 C5.34 1.65 4.68 3.3 4 5 C4.99 5.33 5.98 5.66 7 6 C4.03 5.505 4.03 5.505 1 5 C0.67 3.35 0.34 1.7 0 0 Z " fill="#053B79" transform="translate(97,152)"/>
<path d="M0 0 C1.65 0 3.3 0 5 0 C5 1.32 5 2.64 5 4 C3.35 4 1.7 4 0 4 C0 2.68 0 1.36 0 0 Z " fill="#0C4881" transform="translate(55,92)"/>
<path d="M0 0 C0.33 0 0.66 0 1 0 C1 2.97 1 5.94 1 9 C1.66 9.33 2.32 9.66 3 10 C1.02 10.99 1.02 10.99 -1 12 C-0.67 8.04 -0.34 4.08 0 0 Z " fill="#A5B3C6" transform="translate(463,101)"/>
<path d="M0 0 C0.66 0.33 1.32 0.66 2 1 C0.35 2.98 -1.3 4.96 -3 7 C-3.66 6.34 -4.32 5.68 -5 5 C-3.35 3.35 -1.7 1.7 0 0 Z " fill="#2C4B74" transform="translate(286,101)"/>
</svg>
