<?xml version="1.0" encoding="UTF-8"?>
<svg version="1.1" xmlns="http://www.w3.org/2000/svg" width="760" height="318">
<path d="M0 0 C250.8 0 501.6 0 760 0 C760 104.94 760 209.88 760 318 C509.2 318 258.4 318 0 318 C0 213.06 0 108.12 0 0 Z " fill="#F9F9F9" transform="translate(0,0)"/>
<path d="M0 0 C15.91253334 -0.80911186 32.006623 5.37394192 44.3359375 15.44921875 C51.69888762 22.31093518 57.63035055 29.82962426 59 40 C59.58007812 39.39671875 60.16015625 38.7934375 60.7578125 38.171875 C68.3788951 30.37472778 76.54600839 23.36713406 87.99291992 22.92260742 C90.26699827 22.90179493 92.53847298 22.91272016 94.8125 22.9375 C95.99489258 22.94426758 95.99489258 22.94426758 97.20117188 22.95117188 C99.13414761 22.96288688 101.06708393 22.98082002 103 23 C105.01991998 40.68900796 106.2183516 58.19221358 106 76 C104.36804688 76.02126953 104.36804688 76.02126953 102.703125 76.04296875 C88.02776765 76.43185315 77.98067579 80.98205876 65.93359375 89.109375 C63 91 63 91 60 92 C59.62230469 91.09378906 59.24460937 90.18757813 58.85546875 89.25390625 C54.84095583 80.17224141 50.33778381 74.70094442 42 69 C41.37738281 68.51144531 40.75476563 68.02289063 40.11328125 67.51953125 C29.98951908 60.12577237 15.11171686 58.28603016 3 57 C2.06830378 52.09433418 1.70953223 47.27924296 1.46484375 42.3046875 C1.42186661 41.47599152 1.37888947 40.64729553 1.33460999 39.79348755 C1.24474503 38.04372583 1.15659804 36.29387514 1.07006836 34.54394531 C0.93894161 31.90402338 0.80094098 29.26452665 0.66210938 26.625 C0.2064546 17.74397707 -0.1522152 8.8961328 0 0 Z " fill="#0D7FC8" transform="translate(206,107)"/>
<path d="M0 0 C1.19435669 0.00737183 1.19435669 0.00737183 2.4128418 0.01489258 C9.78714357 0.16143175 16.15597114 0.83727691 22.0625 5.5625 C22.784375 6.47 23.50625 7.3775 24.25 8.3125 C24.69085937 8.83972656 25.13171875 9.36695313 25.5859375 9.91015625 C30.0311445 15.55017322 31.80048512 21.70391443 31.55859375 28.91796875 C30.15384129 39.81813657 26.75694041 49.01891959 18.11328125 56.05078125 C15.88589097 57.61734021 13.62462806 58.98157559 11.25 60.3125 C10.58613281 60.72628906 9.92226563 61.14007813 9.23828125 61.56640625 C1.5571635 65.76541729 -8.44717408 65.80693276 -16.7578125 63.46484375 C-22.81075269 60.73454198 -26.94268173 56.68516133 -30.75 51.3125 C-31.18441406 50.72984375 -31.61882812 50.1471875 -32.06640625 49.546875 C-36.53085243 42.39131666 -35.61783784 33.31072393 -34.23046875 25.3203125 C-31.64155089 16.52054242 -24.74203943 8.78248001 -17.27734375 3.59375 C-11.44091972 0.63494462 -6.43451581 -0.04654383 0 0 Z " fill="#FC7318" transform="translate(519.75,131.6875)"/>
<path d="M0 0 C1.18239258 0.00676758 1.18239258 0.00676758 2.38867188 0.01367188 C4.32164761 0.02538688 6.25458393 0.04332002 8.1875 0.0625 C10.20741998 17.75150796 11.4058516 35.25471358 11.1875 53.0625 C9.55554688 53.08376953 9.55554688 53.08376953 7.890625 53.10546875 C-6.78473235 53.49435315 -16.83182421 58.04455876 -28.87890625 66.171875 C-31.8125 68.0625 -31.8125 68.0625 -34.8125 69.0625 C-36.86067135 59.42247262 -37.37562476 49.86486531 -37.51269531 40.04394531 C-37.54597719 38.30219373 -37.60077715 36.56072429 -37.67675781 34.8203125 C-38.30082564 20.36364559 -38.30082564 20.36364559 -34.64526367 14.71166992 C-32.15786764 12.19889923 -29.69739588 10.09790842 -26.8125 8.0625 C-25.95120483 7.38562134 -25.95120483 7.38562134 -25.07250977 6.69506836 C-17.30394653 0.95217535 -9.27752755 -0.10109628 0 0 Z " fill="#0B71BD" transform="translate(300.8125,129.9375)"/>
<path d="M0 0 C5.7619804 0.09442094 11.52358363 0.20069758 17.28515625 0.31738281 C19.24017548 0.35537561 21.19525758 0.39027689 23.15039062 0.421875 C37.58233531 0.65798043 50.74269048 1.16811499 64.25 6.75 C65.08273438 7.07226562 65.91546875 7.39453125 66.7734375 7.7265625 C71.87055092 9.78777764 75.96589715 12.21462382 80.17773438 15.75756836 C82.90643829 17.61801507 85.26309946 17.87897517 88.51171875 17.66015625 C93.86527787 16.23982424 98.37074353 12.9430198 103 10 C110.62496967 5.6830155 117.21597035 4.83102798 125.8125 4.875 C126.58787109 4.87113281 127.36324219 4.86726562 128.16210938 4.86328125 C133.87327454 4.87327454 133.87327454 4.87327454 135 6 C135.125 8.5 135.125 8.5 135 11 C133.10833399 12.89166601 130.2971071 12.17909635 127.76391602 12.29101562 C115.78781316 12.95580069 107.13189735 16.6427737 96.99438477 22.88671875 C92.53884805 25.37383436 88.97903661 26.24974333 83.86572266 26.24291992 C82.03432236 26.24753487 82.03432236 26.24753487 80.16592407 26.25224304 C78.83196841 26.24532424 77.49801453 26.23805581 76.1640625 26.23046875 C74.76573733 26.2292723 73.36741135 26.22882477 71.96908569 26.2290802 C69.02182031 26.22751458 66.07467618 26.21924325 63.12744141 26.20581055 C59.45150475 26.18922364 55.77570468 26.1850798 52.09973526 26.18562126 C36.86005497 26.18509603 21.63147502 26.01290635 6.3984375 25.55078125 C5.71977253 25.53148245 5.04110756 25.51218365 4.34187698 25.49230003 C2.44828809 25.43702521 0.55494094 25.37364382 -1.33837891 25.30981445 C-2.41149323 25.27435013 -3.48460754 25.2388858 -4.59024048 25.2023468 C-7 25 -7 25 -8 24 C-8.125 21.5 -8.125 21.5 -8 19 C-6.11790302 17.11790302 -2.87609119 17.82563076 -0.36889648 17.79467773 C0.32375305 17.78477814 1.01640259 17.77487854 1.7300415 17.76467896 C4.02962779 17.7329797 6.32923477 17.70827349 8.62890625 17.68359375 C10.21932018 17.66303148 11.80972855 17.64203521 13.40013123 17.62062073 C17.59389763 17.56532491 21.78771395 17.5159489 25.98156738 17.46777344 C30.25793928 17.41761309 34.53423834 17.36189856 38.81054688 17.30664062 C47.20696973 17.19896726 55.60345338 17.09754284 64 17 C61.03 16.01 58.06 15.02 55 14 C55 13.34 55 12.68 55 12 C50.65525134 11.1728257 46.52857022 10.86178713 42.10839844 10.82641602 C41.11703888 10.8163855 41.11703888 10.8163855 40.10565186 10.80615234 C38.68159513 10.79218512 37.25751711 10.7802652 35.83342743 10.77020454 C33.5807861 10.75369674 31.32830506 10.73046121 29.07574463 10.70530701 C22.67525273 10.63476008 16.27470071 10.57419605 9.87402344 10.52319336 C5.95073153 10.49146263 2.02763439 10.45021995 -1.89550018 10.40299797 C-3.3898343 10.38696275 -4.88421306 10.37464821 -6.3786087 10.36609077 C-8.46126738 10.35398077 -10.54346377 10.32985586 -12.62597656 10.30297852 C-14.40418793 10.28751732 -14.40418793 10.28751732 -16.21832275 10.27174377 C-19 10 -19 10 -21 8 C-20.44444444 3.44444444 -20.44444444 3.44444444 -19 2 C-17.58429877 1.91348389 -16.164405 1.89295096 -14.74609375 1.90234375 C-13.46508789 1.90717773 -13.46508789 1.90717773 -12.15820312 1.91210938 C-11.26037109 1.92048828 -10.36253906 1.92886719 -9.4375 1.9375 C-8.53580078 1.94201172 -7.63410156 1.94652344 -6.70507812 1.95117188 C-4.46998686 1.96299775 -2.23502563 1.9794778 0 2 C0 1.34 0 0.68 0 0 Z " fill="#FA7C1E" transform="translate(178,185)"/>
<path d="M0 0 C0.825 0.804375 1.65 1.60875 2.5 2.4375 C1.1302836 6.43250618 -0.75722422 9.23759492 -3.5 12.4375 C-9.11553706 10.65073821 -9.11553706 10.65073821 -11.39453125 9.38671875 C-16.15807171 7.23914856 -21.76627473 7.88270791 -26.625 9.4375 C-28.8339602 11.79372421 -28.78483861 12.49926274 -28.8125 15.625 C-28.709375 16.883125 -28.60625 18.14125 -28.5 19.4375 C-27.8709375 19.61925781 -27.241875 19.80101562 -26.59375 19.98828125 C-23.88866849 20.78269525 -21.19329893 21.6040436 -18.5 22.4375 C-17.78585937 22.6540625 -17.07171875 22.870625 -16.3359375 23.09375 C-9.92002101 25.2409093 -4.2856687 28.75899695 -0.5 34.4375 C0.54363338 41.26965806 -0.64322345 46.7538293 -4.5 52.4375 C-7.95315374 56.87726909 -11.26486889 58.34263857 -16.51171875 59.859375 C-18.54918671 60.3872175 -18.54918671 60.3872175 -20.5 61.4375 C-32.26057905 62.25947596 -41.53981438 60.71674746 -51.5 54.4375 C-51.05530671 49.39764269 -48.78656638 47.06115012 -45.5 43.4375 C-42.60235133 44.04117681 -40.51230116 44.96286837 -38 46.5 C-32.67574227 49.22195198 -27.34652605 49.24815277 -21.5 48.4375 C-18.64709462 47.44587675 -17.67279534 46.67065077 -15.5 44.4375 C-14.99758678 41.7670947 -14.99758678 41.7670947 -15.5 39.4375 C-21.50836362 36.72159826 -27.56267988 34.18544545 -33.703125 31.78125 C-39.14560863 29.16642546 -42.48160073 26.17400318 -44.5 20.4375 C-45.42988519 13.57676172 -44.63620243 8.98871905 -40.5 3.4375 C-35.97213621 -1.92444396 -31.29438398 -2.59132126 -24.44140625 -3.33984375 C-6.14976652 -4.3731673 -6.14976652 -4.3731673 0 0 Z " fill="#0C7EC7" transform="translate(377.5,134.5625)"/>
<path d="M0 0 C1.23234375 -0.01417969 2.4646875 -0.02835938 3.734375 -0.04296875 C9.10461564 0.30908036 12.90220881 2.06397696 16.95703125 5.66015625 C21.77964746 11.35696271 20.25 20.54099388 20.25 27.1875 C9.36 27.1875 -1.53 27.1875 -12.75 27.1875 C-10.58171111 31.44085956 -10.58171111 31.44085956 -7.75 35.1875 C-5.4609392 35.31336907 -3.16748882 35.36327971 -0.875 35.375 C0.38054687 35.38917969 1.63609375 35.40335938 2.9296875 35.41796875 C6.38793042 35.45359042 6.38793042 35.45359042 9.25 33.1875 C11.25 33.1875 11.25 33.1875 13.25 34.1875 C15.20320589 37.39633825 16.25 39.4080439 16.25 43.1875 C6.86775009 47.47652853 -3.1666078 49.20978538 -13.25 46.125 C-18.58519081 43.72072946 -22.66983554 38.5864723 -24.75 33.1875 C-25.68563715 23.74409252 -25.42233821 16.05821891 -19.39453125 8.484375 C-15.95313718 4.68315689 -12.51894253 2.96416487 -7.75 1.1875 C-5.83958442 -0.72291558 -2.53859404 0.01316698 0 0 Z " fill="#0E76C0" transform="translate(405.75,148.8125)"/>
<path d="M0 0 C4.29 0 8.58 0 13 0 C12.52528846 3.95891507 12.04544606 7.91708861 11.5625 11.875 C11.42779297 13.00292969 11.29308594 14.13085938 11.15429688 15.29296875 C11.02216797 16.36933594 10.89003906 17.44570312 10.75390625 18.5546875 C10.63345947 19.54968262 10.5130127 20.54467773 10.38891602 21.56982422 C10 24 10 24 9 26 C8.9310528 27.37342831 8.91532292 28.75002102 8.9375 30.125 C8.958125 31.40375 8.97875 32.6825 9 34 C9.4125 33.57589844 9.825 33.15179688 10.25 32.71484375 C11.47542372 31.47027278 12.7164449 30.24095634 13.96875 29.0234375 C16.00412659 27.0519196 16.00412659 27.0519196 17.71875 24.9765625 C20.98453899 21.4672717 22.97472149 20.11669837 27.84375 19.5625 C31.58166881 19.49146542 35.27541573 19.6944677 39 20 C37.89822514 23.30532457 37.10316567 24.01303027 34.5 26.1875 C33.7884375 26.79078125 33.076875 27.3940625 32.34375 28.015625 C31.5703125 28.67046875 30.796875 29.3253125 30 30 C28.32937152 31.47469057 26.66261168 32.95377691 25 34.4375 C24.236875 35.11683594 23.47375 35.79617187 22.6875 36.49609375 C22.130625 36.99238281 21.57375 37.48867187 21 38 C21.62071703 41.14566768 22.68041502 43.31831953 24.46875 45.96875 C25.20158203 47.07283203 25.20158203 47.07283203 25.94921875 48.19921875 C26.46097656 48.95847656 26.97273437 49.71773437 27.5 50.5 C28.51567624 52.0068849 29.5262975 53.51719227 30.53125 55.03125 C30.98048828 55.69705078 31.42972656 56.36285156 31.89257812 57.04882812 C33.02031848 59.03579922 33.55959177 60.76810069 34 63 C29.27821606 64.13155177 24.56579845 64.98333326 20 63 C14.84744872 58.14539466 10.98643775 51.38245358 8 45 C8 44.34 8 43.68 8 43 C7.34 43 6.68 43 6 43 C5.93941406 44.02480469 5.87882813 45.04960937 5.81640625 46.10546875 C5.73194974 47.46615695 5.64730433 48.82683343 5.5625 50.1875 C5.52318359 50.86103516 5.48386719 51.53457031 5.44335938 52.22851562 C5.2078078 55.94298273 4.73420901 59.32895494 4 63 C-0.29 63 -4.58 63 -9 63 C-8.44908009 52.83583713 -7.42750904 42.89706638 -5.89819336 32.83642578 C-5.55973728 30.60680022 -5.23137215 28.37585196 -4.90429688 26.14453125 C-3.84925235 19.03084936 -2.67366845 11.99897716 -1 5 C-0.67 3.35 -0.34 1.7 0 0 Z " fill="#FB751A" transform="translate(561,131)"/>
<path d="M0 0 C15.92448831 -0.80971974 31.98279522 5.38209478 44.33203125 15.44140625 C50.52417157 21.22750458 57.08510536 27.79837802 57.42578125 36.6640625 C57.40871629 38.31805137 57.37061524 39.97194434 57.3125 41.625 C57.29799805 42.87410156 57.29799805 42.87410156 57.28320312 44.1484375 C57.20885755 48.20835265 56.99368127 52.04143233 56 56 C51.93900896 52.09662733 48.52971775 47.76069252 45.0234375 43.36328125 C43.22140484 40.94880284 43.22140484 40.94880284 41 40 C41 39.34 41 38.68 41 38 C40.3296875 37.74089844 39.659375 37.48179687 38.96875 37.21484375 C36.11742848 36.04805297 33.32850073 34.77472297 30.53051758 33.48657227 C21.43298992 29.34636039 12.16770103 25.68400198 2 26 C-1.59517614 18.80964773 -0.12553442 7.86682339 0 0 Z " fill="#04A6EB" transform="translate(206,107)"/>
<path d="M0 0 C4.29 0 8.58 0 13 0 C12.19642857 11.51785714 12.19642857 11.51785714 10.9375 17.1875 C9.71136193 22.86067614 9.14530244 28.43590732 11 34 C13.97 34 16.94 34 20 34 C20.33 33.34 20.66 32.68 21 32 C21.66 32 22.32 32 23 32 C24.51078391 28.51890207 25.41806229 25.30872401 26 21.5625 C26.16242187 20.52738281 26.32484375 19.49226563 26.4921875 18.42578125 C27.35273096 12.62042265 28.18630013 6.81214193 29 1 C33.29 1 37.58 1 42 1 C41.5447875 9.92216503 40.74603336 18.70627842 39.5625 27.5625 C39.44028076 28.50174316 39.31806152 29.44098633 39.19213867 30.40869141 C38.53775595 35.14626923 37.72648422 39.50815145 36 44 C32.04 44 28.08 44 24 44 C23.67 42.68 23.34 41.36 23 40 C22.38125 40.495 21.7625 40.99 21.125 41.5 C19 43 19 43 17 43 C17 43.66 17 44.32 17 45 C12.0405356 46.27986178 5.86732264 47.51870903 1.15625 45.0234375 C-2.28824018 42.2712223 -4.68137435 39.40843506 -5.265625 34.9921875 C-5.22961087 30.11227329 -4.6309978 25.65378442 -3.57421875 20.89453125 C-2.61151614 16.04172421 -2.0689611 11.1304856 -1.46484375 6.22265625 C-1 3 -1 3 0 0 Z " fill="#FB6E1C" transform="translate(604,150)"/>
<path d="M0 0 C4.62936578 3.18855028 7.12443501 6.37950839 8.62109375 11.8984375 C9.6363927 18.78704811 8.10944319 24.90092443 4.62109375 30.8984375 C2.50741937 33.28258206 0.23185646 35.08822903 -2.37890625 36.8984375 C-3.49265625 37.8265625 -3.49265625 37.8265625 -4.62890625 38.7734375 C-9.1438741 40.6204698 -13.58061818 40.52644873 -18.37890625 39.8984375 C-23.29896692 37.57259064 -25.6912206 34.57700142 -28.37890625 29.8984375 C-30.36509127 23.93988244 -30.12681615 17.94235622 -27.69140625 12.1484375 C-24.8440599 6.51347935 -21.70835838 1.62471114 -15.4609375 -0.62109375 C-10.19250402 -1.83688609 -5.00455197 -2.31737875 0 0 Z " fill="#F9F6F4" transform="translate(528.37890625,144.1015625)"/>
<path d="M0 0 C2.64 0 5.28 0 8 0 C8.68891606 5.3307388 9.35386851 10.66391205 10 16 C10.11730469 16.95003906 10.23460937 17.90007812 10.35546875 18.87890625 C11.29304535 27.56168081 11.08634207 36.27945114 11 45 C11.680625 44.97679687 12.36125 44.95359375 13.0625 44.9296875 C25.89338121 44.69081471 38.14653311 45.82666487 50 51 C50 51.66 50 52.32 50 53 C51.3303125 53.38091797 51.3303125 53.38091797 52.6875 53.76953125 C60.21287914 56.56492562 67.62990265 63.2271554 72 70 C72.65234375 72.203125 72.65234375 72.203125 73 74 C72.52691406 73.63648438 72.05382812 73.27296875 71.56640625 72.8984375 C70.90511719 72.39570313 70.24382812 71.89296875 69.5625 71.375 C68.92441406 70.88773437 68.28632813 70.40046875 67.62890625 69.8984375 C66.76136719 69.27195312 65.89382813 68.64546875 65 68 C64.36787598 67.53279541 63.73575195 67.06559082 63.08447266 66.58422852 C57.41869626 62.57060309 51.86019781 60.22902329 45.25 58.1875 C44.33089844 57.88908203 43.41179687 57.59066406 42.46484375 57.28320312 C36.17981054 55.26853618 30.45078149 53.91209591 23.82421875 53.68359375 C22.66728516 53.64169922 21.51035156 53.59980469 20.31835938 53.55664062 C18.52108398 53.49766602 18.52108398 53.49766602 16.6875 53.4375 C15.46998047 53.39431641 14.25246094 53.35113281 12.99804688 53.30664062 C9.9988053 53.20078504 6.99948409 53.09870274 4 53 C3.41869206 48.02486982 2.84969111 43.04852334 2.29101562 38.07080078 C2.10020656 36.38521395 1.90630465 34.69997373 1.70898438 33.01513672 C0.4154357 21.94737587 -0.27852688 11.14881214 0 0 Z " fill="#1471BD" transform="translate(192,125)"/>
<path d="M0 0 C1.01037827 0.00222061 2.02075653 0.00444122 3.06175232 0.00672913 C4.77341331 0.00684242 4.77341331 0.00684242 6.51965332 0.00695801 C7.76129745 0.01211929 9.00294159 0.01728058 10.2822113 0.02259827 C12.17785072 0.02472069 12.17785072 0.02472069 14.11178589 0.02688599 C17.47705394 0.0315487 20.84225495 0.04053972 24.20750427 0.05158997 C27.63930164 0.06180606 31.07110613 0.06643873 34.50291443 0.07142639 C41.2405826 0.08163189 47.97813276 0.10120361 54.71580505 0.12025452 C54.71580505 9.03025452 54.71580505 17.94025452 54.71580505 27.12025452 C51.74580505 26.79025452 48.77580505 26.46025452 45.71580505 26.12025452 C45.71580505 25.46025452 45.71580505 24.80025452 45.71580505 24.12025452 C44.50465027 24.13596497 44.50465027 24.13596497 43.26902771 24.1519928 C39.62631823 24.19345283 35.9836583 24.2195489 32.34080505 24.24525452 C31.06978943 24.26201233 29.7987738 24.27877014 28.48924255 24.29603577 C27.2775238 24.30248108 26.06580505 24.30892639 24.81736755 24.31556702 C23.69668884 24.32604065 22.57601013 24.33651428 21.42137146 24.3473053 C18.71580505 24.12025452 18.71580505 24.12025452 16.71580505 22.12025452 C16.52830505 19.55775452 16.52830505 19.55775452 16.71580505 17.12025452 C17.71580505 16.12025452 17.71580505 16.12025452 20.39964294 16.00672913 C21.567453 16.01196594 22.73526306 16.01720276 23.9384613 16.02259827 C25.1985199 16.02582092 26.45857849 16.02904358 27.75682068 16.03236389 C29.09731614 16.04072048 30.43781093 16.04918544 31.77830505 16.05775452 C33.12270447 16.06276792 34.46710565 16.0673311 35.81150818 16.07142639 C39.11298446 16.08325964 42.41437309 16.09974481 45.71580505 16.12025452 C45.71580505 13.48025452 45.71580505 10.84025452 45.71580505 8.12025452 C44.81711449 8.12358543 44.81711449 8.12358543 43.90026855 8.12698364 C37.68782648 8.14903616 31.47539544 8.16416097 25.26292419 8.17518616 C22.94163054 8.18022785 20.62034008 8.18706103 18.29905701 8.19569397 C14.97051711 8.20776676 11.64201903 8.2134843 8.3134613 8.21791077 C6.74629112 8.22565269 6.74629112 8.22565269 5.14746094 8.23355103 C4.18654037 8.23362656 3.22561981 8.23370209 2.23558044 8.23377991 C1.38508621 8.23600052 0.53459198 8.23822113 -0.3416748 8.24050903 C-2.28419495 8.12025452 -2.28419495 8.12025452 -3.28419495 7.12025452 C-3.40919495 4.12025452 -3.40919495 4.12025452 -3.28419495 1.12025452 C-2.28419495 0.12025452 -2.28419495 0.12025452 0 0 Z " fill="#FC8422" transform="translate(132.28419494628906,155.87974548339844)"/>
<path d="M0 0 C-0.33 3.96 -0.66 7.92 -1 12 C-2.8975 12.226875 -4.795 12.45375 -6.75 12.6875 C-10.57957196 13.1453836 -12.40021778 13.37855897 -15.109375 16.18554688 C-17.17838877 19.265556 -17.74185511 21.30934806 -18.265625 24.95703125 C-18.51699219 26.62475586 -18.51699219 26.62475586 -18.7734375 28.32617188 C-18.93070312 29.47666016 -19.08796875 30.62714844 -19.25 31.8125 C-19.42273438 32.98232422 -19.59546875 34.15214844 -19.7734375 35.35742188 C-20.19644704 38.2362368 -20.60011933 41.11788135 -21 44 C-25.29 44 -29.58 44 -34 44 C-34.30247568 37.2577195 -33.15091103 30.82718391 -32.0625 24.1875 C-30.81007206 16.46493198 -29.69268571 8.79453709 -29 1 C-24.71 1 -20.42 1 -16 1 C-15.67 2.32 -15.34 3.64 -15 5 C-14.4225 4.360625 -13.845 3.72125 -13.25 3.0625 C-9.18280991 -0.66575758 -5.37571822 -0.1033792 0 0 Z " fill="#0B7EC6" transform="translate(462,150)"/>
<path d="M0 0 C4.29 0 8.58 0 13 0 C13.14805139 5.35144102 12.60736826 10.29260914 11.6875 15.55859375 C11.55432373 16.34774673 11.42114746 17.13689972 11.28393555 17.94996643 C10.86132273 20.44675835 10.43079656 22.94210849 10 25.4375 C9.7104116 27.13988458 9.42134387 28.84235782 9.1328125 30.54492188 C8.42789139 34.69766398 7.71587467 38.84913272 7 43 C2.71 43 -1.58 43 -6 43 C-5.39991439 33.26757714 -4.10849832 23.78207699 -2.4375 14.1875 C-2.20063243 12.80152438 -1.96430153 11.41545692 -1.72851562 10.02929688 C-1.15758901 6.68529815 -0.57954063 3.34251662 0 0 Z " fill="#0974BF" transform="translate(467,151)"/>
<path d="M0 0 C1.56047445 0.00015913 3.12095416 0.00585397 4.68139648 0.01586914 C5.91115456 0.01799156 5.91115456 0.01799156 7.16575623 0.02015686 C9.79470406 0.0257725 12.42356797 0.0383276 15.05249023 0.05102539 C16.8304838 0.05603838 18.60847869 0.06060163 20.38647461 0.06469727 C24.75434569 0.07574701 29.12215371 0.09302208 33.48999023 0.11352539 C33.48999023 0.77352539 33.48999023 1.43352539 33.48999023 2.11352539 C32.82999023 2.11352539 32.16999023 2.11352539 31.48999023 2.11352539 C31.48999023 3.76352539 31.48999023 5.41352539 31.48999023 7.11352539 C26.52376674 7.13817637 21.55757857 7.15636188 16.59130859 7.16845703 C14.90054708 7.17349729 13.20978994 7.18032944 11.51904297 7.18896484 C9.09398317 7.20104396 6.66898079 7.20675662 4.24389648 7.21118164 C3.103265 7.21892357 3.103265 7.21892357 1.93959045 7.2268219 C0.12266453 7.22701777 -1.69414104 7.17549816 -3.51000977 7.11352539 C-4.51000977 6.11352539 -4.51000977 6.11352539 -4.63500977 3.61352539 C-4.43940802 -0.29850952 -4.06107262 0.1313486 0 0 Z " fill="#1287C6" transform="translate(174.510009765625,202.886474609375)"/>
<path d="M0 0 C0.99 0.33 1.98 0.66 3 1 C2.98839844 1.59167969 2.97679687 2.18335938 2.96484375 2.79296875 C2.95582031 3.58316406 2.94679688 4.37335938 2.9375 5.1875 C2.92589844 5.96480469 2.91429687 6.74210938 2.90234375 7.54296875 C2.93002048 9.99851969 2.93002048 9.99851969 3.50219727 12.34423828 C3.99314253 14.96341563 4.09959471 17.28947629 4.0625 19.94921875 C4.05476563 20.88056641 4.04703125 21.81191406 4.0390625 22.77148438 C4.01328242 24.69596706 3.98724612 26.62044634 3.9609375 28.54492188 C3.9154164 34.06435487 4.13798275 39.43327131 4.78125 44.91723633 C5 47 5 47 5 50 C3.68 50.66 2.36 51.32 1 52 C-1.21334584 42.16221069 -1.27707313 32.50917114 -1.20581055 22.48706055 C-1.18727539 19.77969169 -1.18530329 17.07266077 -1.18554688 14.36523438 C-1.18064054 12.64583035 -1.17481613 10.92642864 -1.16796875 9.20703125 C-1.16685593 8.3967598 -1.1657431 7.58648834 -1.16459656 6.75166321 C-1.1161414 1.1161414 -1.1161414 1.1161414 0 0 Z " fill="#1C4BA6" transform="translate(265,147)"/>
<path d="M0 0 C2.4375 1.5625 2.4375 1.5625 4 4 C4.07534495 8.21931729 3.66424168 10.23807572 0.875 13.4375 C-2.74198308 15.40325167 -4.94117239 15.60130779 -9 15 C-10.9375 13.4375 -10.9375 13.4375 -12 11 C-12.64052288 4.91503268 -12.64052288 4.91503268 -10.6875 2.125 C-7.23099992 -0.17933339 -4.04239083 -0.41248886 0 0 Z " fill="#12ACEA" transform="translate(480,129)"/>
<path d="M0 0 C9.24 0 18.48 0 28 0 C24 2 24 2 22 2 C21.34 3.98 20.68 5.96 20 8 C11.42 8 2.84 8 -6 8 C-4.68 7.67 -3.36 7.34 -2 7 C-2 5.35 -2 3.7 -2 2 C-1.34 2 -0.68 2 0 2 C0 1.34 0 0.68 0 0 Z " fill="#917273" transform="translate(208,203)"/>
<path d="M0 0 C9.15176582 0.85797805 16.93834196 8.71224104 23 15 C24.85546875 17.65625 24.85546875 17.65625 26 20 C25.67 20.66 25.34 21.32 25 22 C24.34773438 21.46890625 23.69546875 20.9378125 23.0234375 20.390625 C14.54408506 13.5371071 7.4723248 9.18575577 -3 6 C-2 4 -1 2 0 0 Z " fill="#214B97" transform="translate(239,177)"/>
<path d="M0 0 C2.3046875 0.46875 2.3046875 0.46875 4.109375 1.625 C5.3046875 3.46875 5.3046875 3.46875 5.3046875 9.46875 C-0.9653125 9.46875 -7.2353125 9.46875 -13.6953125 9.46875 C-11.69912129 1.48398514 -7.63662621 -0.09284652 0 0 Z " fill="#F8F9FB" transform="translate(408.6953125,158.53125)"/>
<path d="M0 0 C5.94 0 11.88 0 18 0 C18 2.31 18 4.62 18 7 C15.20807795 7.05380578 12.4171859 7.09357669 9.625 7.125 C8.8309375 7.14175781 8.036875 7.15851563 7.21875 7.17578125 C5.14507985 7.19335473 3.07116759 7.10335168 1 7 C0.34 6.34 -0.32 5.68 -1 5 C-0.67 3.35 -0.34 1.7 0 0 Z " fill="#1F8ED0" transform="translate(168,142)"/>
<path d="M0 0 C1.39456452 0.00667256 2.78911118 0.01863093 4.18359375 0.03515625 C4.89451172 0.03966797 5.60542969 0.04417969 6.33789062 0.04882812 C8.09899388 0.06064761 9.86005411 0.07858362 11.62109375 0.09765625 C11.62109375 0.75765625 11.62109375 1.41765625 11.62109375 2.09765625 C10.96109375 2.09765625 10.30109375 2.09765625 9.62109375 2.09765625 C9.62109375 3.74765625 9.62109375 5.39765625 9.62109375 7.09765625 C7.66283502 7.12460476 5.70447149 7.14402843 3.74609375 7.16015625 C2.65554687 7.17175781 1.565 7.18335938 0.44140625 7.1953125 C-2.37890625 7.09765625 -2.37890625 7.09765625 -4.37890625 6.09765625 C-4.42162725 4.4315372 -4.41954457 2.7638274 -4.37890625 1.09765625 C-3.37890625 0.09765625 -3.37890625 0.09765625 0 0 Z " fill="#5E6B88" transform="translate(196.37890625,202.90234375)"/>
<path d="M0 0 C2.14576637 -0.02685938 4.29162645 -0.04633088 6.4375 -0.0625 C7.63246094 -0.07410156 8.82742187 -0.08570313 10.05859375 -0.09765625 C13 0 13 0 14 1 C14.125 3.5 14.125 3.5 14 6 C12.19253866 7.80746134 9.49554219 7.17303483 7.0625 7.1875 C5.98097656 7.20167969 4.89945313 7.21585938 3.78515625 7.23046875 C1 7 1 7 -1 5 C-0.625 2.375 -0.625 2.375 0 0 Z " fill="#FD8029" transform="translate(136,188)"/>
<path d="M0 0 C0.99128906 -0.00257813 1.98257813 -0.00515625 3.00390625 -0.0078125 C5.4375 0.125 5.4375 0.125 6.4375 1.125 C6.5625 3.625 6.5625 3.625 6.4375 6.125 C5.4375 7.125 5.4375 7.125 2.75 7.2578125 C1.656875 7.25523437 0.56375 7.25265625 -0.5625 7.25 C-1.655625 7.25257813 -2.74875 7.25515625 -3.875 7.2578125 C-6.5625 7.125 -6.5625 7.125 -7.5625 6.125 C-7.60313832 4.45882885 -7.605221 2.79111905 -7.5625 1.125 C-4.93920316 -0.18664842 -2.92551375 -0.00762846 0 0 Z " fill="#2992D3" transform="translate(154.5625,141.875)"/>
<path d="M0 0 C0.33 0 0.66 0 1 0 C4.04452153 13.99456537 3.11399663 28.76971309 3 43 C2.67 43 2.34 43 2 43 C-1.04452153 29.00543463 -0.11399663 14.23028691 0 0 Z " fill="#AF8162" transform="translate(264,148)"/>
<path d="M0 0 C1.65 0.66 3.3 1.32 5 2 C5 2.33 5 2.66 5 3 C-18.76 3 -42.52 3 -67 3 C-67 2.67 -67 2.34 -67 2 C-44.89 2 -22.78 2 0 2 C0 1.34 0 0.68 0 0 Z " fill="#C9CBCE" transform="translate(238,200)"/>
<path d="M0 0 C0.33 0.66 0.66 1.32 1 2 C3.12576782 2.46651207 3.12576782 2.46651207 5.5625 2.625 C6.38878906 2.69976562 7.21507812 2.77453125 8.06640625 2.8515625 C8.70449219 2.90054688 9.34257812 2.94953125 10 3 C10 3.66 10 4.32 10 5 C20.89 5 31.78 5 43 5 C43 5.33 43 5.66 43 6 C37.66146176 6.0247366 32.32295697 6.0428774 26.984375 6.05493164 C25.16861388 6.05995741 23.3528568 6.06677903 21.53710938 6.07543945 C18.9257711 6.08758189 16.31448638 6.09324591 13.703125 6.09765625 C12.89256653 6.10281754 12.08200806 6.10797882 11.24688721 6.11329651 C7.6579583 6.11365296 4.45259214 5.97045947 1 5 C0.67 5.66 0.34 6.32 0 7 C0 4.69 0 2.38 0 0 Z " fill="#EBC39E" transform="translate(177,180)"/>
<path d="M0 0 C1.18851563 0.00902344 2.37703125 0.01804688 3.6015625 0.02734375 C4.51679688 0.03894531 5.43203125 0.05054688 6.375 0.0625 C2.625 2.0625 2.625 2.0625 0.375 2.0625 C-0.285 3.7125 -0.945 5.3625 -1.625 7.0625 C-4.265 7.0625 -6.905 7.0625 -9.625 7.0625 C-9.25 4.125 -9.25 4.125 -8.625 1.0625 C-5.74084117 -0.37957941 -3.20778472 -0.03144887 0 0 Z " fill="#BD6945" transform="translate(229.625,202.9375)"/>
<path d="M0 0 C0 0.33 0 0.66 0 1 C-0.59167969 1.01417969 -1.18335938 1.02835938 -1.79296875 1.04296875 C-2.97826172 1.11451172 -2.97826172 1.11451172 -4.1875 1.1875 C-4.96480469 1.22230469 -5.74210937 1.25710937 -6.54296875 1.29296875 C-9.83123915 2.02458751 -9.83123915 2.02458751 -14 7 C-8.72 7.33 -3.44 7.66 2 8 C2 6.35 2 4.7 2 3 C2.33 3 2.66 3 3 3 C3 4.98 3 6.96 3 9 C-3.27 9 -9.54 9 -16 9 C-13.70627819 -0.17488724 -8.35416402 -0.7299755 0 0 Z " fill="#CAE6F3" transform="translate(411,159)"/>
<path d="M0 0 C0.33 0 0.66 0 1 0 C1.33 4.62 1.66 9.24 2 14 C2.66 14 3.32 14 4 14 C4.33 17.96 4.66 21.92 5 26 C4.01 26.33 3.02 26.66 2 27 C0.09572892 17.86970027 -0.22823248 9.28145408 0 0 Z " fill="#365A7B" transform="translate(264,172)"/>
<path d="M0 0 C0.33 0 0.66 0 1 0 C0.67 3.63 0.34 7.26 0 11 C4.97906259 11.75427297 4.97906259 11.75427297 10 12 C10 12.66 10 13.32 10 14 C6.04 14 2.08 14 -2 14 C-2.21192221 8.80790596 -1.5912689 4.873261 0 0 Z " fill="#134A9B" transform="translate(430,180)"/>
<path d="M0 0 C0.66 0.33 1.32 0.66 2 1 C-3.61 6.61 -9.22 12.22 -15 18 C-15.33 17.01 -15.66 16.02 -16 15 C-15.32626343 14.37170288 -15.32626343 14.37170288 -14.63891602 13.73071289 C-12.61327169 11.84149326 -10.58788262 9.9520002 -8.5625 8.0625 C-7.85544922 7.40314453 -7.14839844 6.74378906 -6.41992188 6.06445312 C-5.74638672 5.43603516 -5.07285156 4.80761719 -4.37890625 4.16015625 C-3.7557251 3.57886963 -3.13254395 2.99758301 -2.49047852 2.39868164 C-1.65000401 1.609971 -0.81500364 0.81500364 0 0 Z " fill="#FAE4D3" transform="translate(597,154)"/>
<path d="M0 0 C1.32 0 2.64 0 4 0 C4.33 2.31 4.66 4.62 5 7 C2.03 6.505 2.03 6.505 -1 6 C-1.042721 4.33388095 -1.04063832 2.66617115 -1 1 C-0.67 0.67 -0.34 0.34 0 0 Z " fill="#3173A6" transform="translate(193,203)"/>
<path d="M0 0 C-0.56847656 0.27972656 -1.13695312 0.55945313 -1.72265625 0.84765625 C-7.4510136 3.82181173 -11.69782259 7.19982135 -16 12 C-16 9 -16 9 -14.64453125 7.28125 C-5.4548702 -1.65368697 -5.4548702 -1.65368697 0 0 Z " fill="#FB9F3F" transform="translate(509,135)"/>
<path d="M0 0 C0.58523438 0.21914062 1.17046875 0.43828125 1.7734375 0.6640625 C1.0721875 1.0146875 0.3709375 1.3653125 -0.3515625 1.7265625 C-3.54398929 3.87798055 -5.53666621 6.23340311 -7.89453125 9.23828125 C-8.33410156 9.70878906 -8.77367187 10.17929688 -9.2265625 10.6640625 C-9.8865625 10.6640625 -10.5465625 10.6640625 -11.2265625 10.6640625 C-10.01182628 6.07505901 -7.49631254 3.75991827 -4.078125 0.703125 C-2.2265625 -0.3359375 -2.2265625 -0.3359375 0 0 Z " fill="#3ABCF0" transform="translate(345.2265625,133.3359375)"/>
<path d="M0 0 C1.65 0.33 3.3 0.66 5 1 C5 1.66 5 2.32 5 3 C3.02 3.99 3.02 3.99 1 5 C1.33 5.66 1.66 6.32 2 7 C0.35 6.67 -1.3 6.34 -3 6 C-2 4 -1 2 0 0 Z " fill="#2259A4" transform="translate(239,177)"/>
<path d="M0 0 C0.66 0 1.32 0 2 0 C2.33 0.66 2.66 1.32 3 2 C3.66 1.67 4.32 1.34 5 1 C6.1577506 4.47325181 6.06866652 7.36067448 6 11 C0 3.28571429 0 3.28571429 0 0 Z " fill="#1B66B0" transform="translate(259,183)"/>
<path d="M0 0 C1.32 0 2.64 0 4 0 C3.67 1.65 3.34 3.3 3 5 C3.66 5 4.32 5 5 5 C5 5.66 5 6.32 5 7 C3.68 7 2.36 7 1 7 C0.67 4.69 0.34 2.38 0 0 Z " fill="#4D6D94" transform="translate(197,203)"/>
<path d="M0 0 C2.64 0 5.28 0 8 0 C7.01 0.495 7.01 0.495 6 1 C5.34227572 4.02934491 5.34227572 4.02934491 5 7 C4.34 7 3.68 7 3 7 C2.814375 5.824375 2.814375 5.824375 2.625 4.625 C2.20882007 1.85942178 2.20882007 1.85942178 0 0 Z " fill="#A26657" transform="translate(215,203)"/>
<path d="M0 0 C0.33 0 0.66 0 1 0 C1.33 3.96 1.66 7.92 2 12 C1.01 12.33 0.02 12.66 -1 13 C-2.07310858 9.72814447 -1.89263102 7.57052408 -1.0625 4.25 C-0.86785156 3.45078125 -0.67320312 2.6515625 -0.47265625 1.828125 C-0.31667969 1.22484375 -0.16070312 0.6215625 0 0 Z " fill="#586791" transform="translate(267,186)"/>
<path d="M0 0 C4.875 4.5 4.875 4.5 6 9 C3.69 7.35 1.38 5.7 -1 4 C-0.67 2.68 -0.34 1.36 0 0 Z " fill="#3A5EA7" transform="translate(259,190)"/>
<path d="M0 0 C3.17218843 3.62535821 4.42902597 7.51150278 6 12 C5.01 11.67 4.02 11.34 3 11 C1.9375 8.6875 1.9375 8.6875 1 6 C0.608125 5.278125 0.21625 4.55625 -0.1875 3.8125 C-0.5896875 2.9153125 -0.5896875 2.9153125 -1 2 C-0.67 1.34 -0.34 0.68 0 0 Z " fill="#C4D6E5" transform="translate(261,188)"/>
<path d="M0 0 C-1.5830577 4.2742558 -4.50568404 6.26531794 -8 9 C-6.68994234 5.06982701 -4.75047804 0 0 0 Z " fill="#FADDC4" transform="translate(510,146)"/>
<path d="M0 0 C0.66 0.33 1.32 0.66 2 1 C2 1.99 2 2.98 2 4 C-0.97 4.66 -3.94 5.32 -7 6 C-4 3 -4 3 -1 2 C-0.67 1.34 -0.34 0.68 0 0 Z " fill="#3363A0" transform="translate(420,188)"/>
<path d="M0 0 C2.02361593 4.04723186 2.18527642 5.64600424 2 10 C2 10.99 2 11.98 2 13 C1.34 13 0.68 13 0 13 C0 8.71 0 4.42 0 0 Z " fill="#0C3B9B" transform="translate(268,184)"/>
<path d="M0 0 C1.32 0 2.64 0 4 0 C4 0.66 4 1.32 4 2 C3.34 2 2.68 2 2 2 C2 3.65 2 5.3 2 7 C1.34 6.67 0.68 6.34 0 6 C0 4.02 0 2.04 0 0 Z " fill="#6F697C" transform="translate(204,203)"/>
</svg>
